<svg width="3283" height="2539" viewBox="0 0 3283 2539" fill="none" xmlns="http://www.w3.org/2000/svg">
<path fill-rule="evenodd" clip-rule="evenodd" d="M429.515 844.647C285.348 981.647 -2.38508 1412.95 0.0149205 2042.15C170.348 1999.81 641.711 1970.83 904.515 2178.65C1337.01 2520.65 1721.01 2780.15 2353.51 2178.65C2465 2072.63 2807.01 1966.65 3282.01 2042.15C3283.01 1800.31 3197.31 1222.25 2846.51 844.647C2968.35 752.814 3182.41 457.847 3064.01 12.647C2820.18 -21.6864 2252.01 -6.85303 1930.01 327.147C1801.85 304.98 1506.81 273.947 1352.01 327.147C1229.18 193.98 828.615 -55.353 209.015 12.647C156.515 173.98 127.115 566.247 429.515 844.647ZM1991.01 1376.65C1991.01 1232.15 2224.51 1225.65 2224.51 1376.65C2224.51 1543.65 1991.01 1521.15 1991.01 1376.65ZM1049.51 1376.65C1039.51 1227.65 1281.51 1217.15 1281.51 1376.65C1281.51 1543.65 1059.51 1525.65 1049.51 1376.65ZM434.515 1834.15L207.515 1819.65C562.015 -417.853 3098.46 281.147 3066.01 1824.15L2833.51 1834.15C2449.01 327.147 1599.51 1163.65 1803.51 1659.65C2083.11 1748.85 2165.01 2033.81 2171.01 2165.15C1741.41 2647.95 1281.01 2366.31 1104.51 2165.15C1100.91 1863.95 1349.68 1702.65 1474.51 1659.65C1562.01 647.647 540.015 813.147 434.515 1834.15ZM1635.01 1199.15C1682.68 1047.65 1872.91 725.247 2252.51 647.647C2069.85 521.147 1566.41 344.047 1014.01 647.647C1167.85 675.147 1507.41 823.947 1635.01 1199.15ZM1340.51 2123.15C1436.01 1944.15 1759.51 1834.15 1929.51 2123.15C1837.85 2277.65 1591.71 2493.95 1340.51 2123.15ZM2293.01 427.147L2417.01 490.647C2480.51 398.98 2684.91 228.947 2994.51 282.147C2999.35 268.147 3003.31 215.747 2980.51 118.147C2841.85 134.814 2510.21 219.947 2293.01 427.147ZM268.515 281.147C563.315 219.547 779.681 395.147 851.015 490.647L975.515 427.147C827.515 243.147 457.181 144.48 290.515 118.147C278.915 145.747 271.015 238.314 268.515 281.147Z" fill="#7AB9BD"/>
</svg>
